<?xml version="1.0" standalone="no"?>
<!DOCTYPE svg PUBLIC "-//W3C//DTD SVG 20010904//EN"
 "http://www.w3.org/TR/2001/REC-SVG-20010904/DTD/svg10.dtd">
<svg version="1.0" xmlns="http://www.w3.org/2000/svg"
 width="306.000000pt" height="306.000000pt" viewBox="0 0 306.000000 306.000000"
 preserveAspectRatio="xMidYMid meet">
<metadata>
Created by potrace 1.11, written by Peter Selinger 2001-2013
</metadata>
<g transform="translate(0.000000,306.000000) scale(0.100000,-0.100000)"
fill="#000000" stroke="none">
<path d="M1529 2366 c-4 -4 -26 -9 -50 -11 -55 -5 -78 -10 -148 -32 -31 -9
-60 -17 -66 -18 -5 0 -17 -5 -25 -10 -8 -5 -21 -10 -27 -11 -36 -6 -91 -53
-153 -130 -22 -29 -49 -106 -55 -164 -4 -36 -4 -36 -18 -20 -30 38 -167 70
-204 47 -6 -4 -14 -3 -18 2 -11 19 -150 -34 -196 -75 -8 -8 -20 -14 -25 -14
-5 0 -25 -22 -44 -50 -19 -27 -38 -49 -42 -50 -13 0 -46 -89 -50 -132 -3 -43
-4 -43 -77 -80 -41 -20 -82 -45 -92 -55 -10 -10 -35 -34 -54 -53 -121 -119
-176 -300 -133 -440 27 -87 103 -189 194 -260 21 -17 85 -49 97 -48 4 0 19 -8
33 -16 13 -9 24 -14 24 -11 0 2 11 0 25 -5 53 -20 204 -34 230 -21 5 3 25 6
43 8 18 1 41 7 52 13 11 6 20 8 20 5 0 -3 10 -1 21 6 33 17 72 19 95 4 47 -30
208 -71 259 -66 6 1 30 3 55 5 25 2 59 6 75 10 17 3 41 8 54 11 76 14 173 60
226 106 l35 31 53 -26 c28 -14 61 -27 72 -29 11 -1 25 -6 31 -9 11 -7 34 -6
137 7 31 4 57 3 57 -1 0 -5 33 -25 73 -44 39 -19 74 -37 77 -40 5 -5 35 -8
100 -12 29 -2 143 14 153 22 1 1 9 3 18 5 45 8 140 64 183 107 27 26 55 49 62
49 24 2 61 15 84 30 8 5 37 20 63 34 90 48 205 188 222 271 14 68 16 132 6
170 -12 46 -64 105 -110 125 -17 8 -31 18 -31 22 0 5 -4 6 -9 3 -5 -4 -19 -2
-32 2 -21 8 -22 15 -23 108 -1 72 -6 107 -18 130 -24 43 -79 104 -95 104 -7 0
-13 5 -13 11 0 5 -4 7 -10 4 -5 -3 -10 -1 -10 4 0 6 -3 10 -7 9 -10 -2 -64 13
-78 21 -5 3 -23 6 -40 7 -16 1 -46 3 -65 4 -48 3 -138 -7 -180 -20 -19 -5 -38
-10 -41 -10 -3 0 -5 37 -5 83 1 45 -3 91 -8 102 -5 11 -10 23 -10 26 -1 3 -14
22 -31 43 -16 20 -32 40 -35 44 -25 35 -143 103 -190 110 -13 2 -27 7 -30 11
-5 8 -52 20 -92 24 -10 1 -18 4 -18 7 0 6 -3 6 -155 15 -60 4 -113 4 -116 1z"/>
</g>
</svg>
